{
	"asset": {
		"generator": "Blocks 4.0.1RC0 SVR",
		"version": "1.1",
		"copyright": "Unknown"
	},
	"buffers": {
		"model": {
			"byteLength": 797244,
			"type": "arraybuffer",
			"uri": "model.bin"
		}
	},
	"accessors": {
		"accessor_position_m0-PolyPaper7_-47918": {
			"bufferView": "vec3BufferView",
			"byteOffset": 0,
			"byteStride": 12,
			"componentType": 5126,
			"count": 17742,
			"max": [ 0.4563274, 1.955281, 2.570196 ],
			"min": [ -2.584167, 0.7920361, -0.5964457 ],
			"type": "VEC3"
		 },
		"accessor_normal_m0-PolyPaper7_-47918": {
			"bufferView": "vec3BufferView",
			"byteOffset": 212904,
			"byteStride": 12,
			"componentType": 5126,
			"count": 17742,
			"max": [ 0.999315, 0.9999204, 0.9996907 ],
			"min": [ -0.9993459, -0.9999746, -0.9996661 ],
			"type": "VEC3"
		 },
		"accessor_color_m0-PolyPaper7_-47918": {
			"bufferView": "vec4BufferView",
			"byteOffset": 0,
			"byteStride": 16,
			"componentType": 5126,
			"count": 17742,
			"max": [ 1, 1, 1, 1 ],
			"min": [ 0, 0.1019608, 0.1019608, 1 ],
			"type": "VEC4"
		 },
		"accessor_indices_0_m0-PolyPaper7_-47918": {
			"bufferView": "ushortBufferView",
			"byteOffset": 0,
			"byteStride": 0,
			"componentType": 5123,
			"count": 26310,
			"max": [ 17741 ],
			"min": [ 0 ],
			"type": "SCALAR"
		 },
		"accessor_position_m1-PolyGem25_-47924": {
			"bufferView": "vec3BufferView",
			"byteOffset": 425808,
			"byteStride": 12,
			"componentType": 5126,
			"count": 816,
			"max": [ 0.2507686, 1.680526, -0.2732923 ],
			"min": [ 0.1462269, 1.635848, -0.3175777 ],
			"type": "VEC3"
		 },
		"accessor_normal_m1-PolyGem25_-47924": {
			"bufferView": "vec3BufferView",
			"byteOffset": 435600,
			"byteStride": 12,
			"componentType": 5126,
			"count": 816,
			"max": [ 0.9950613, 0.9930356, 0.9991032 ],
			"min": [ -0.9950615, -0.9930359, -0.9991032 ],
			"type": "VEC3"
		 },
		"accessor_color_m1-PolyGem25_-47924": {
			"bufferView": "vec4BufferView",
			"byteOffset": 283872,
			"byteStride": 16,
			"componentType": 5126,
			"count": 816,
			"max": [ 1, 1, 1, 1 ],
			"min": [ 1, 1, 1, 1 ],
			"type": "VEC4"
		 },
		"accessor_indices_0_m1-PolyGem25_-47924": {
			"bufferView": "ushortBufferView",
			"byteOffset": 52620,
			"byteStride": 0,
			"componentType": 5123,
			"count": 1152,
			"max": [ 815 ],
			"min": [ 0 ],
			"type": "SCALAR"
		 }
	},
	"bufferViews": {
		"ushortBufferView": {
			"buffer": "model",
			"byteLength": 54924,
			"byteOffset": 0,
			"target": 34963
		},
		"vec3BufferView": {
			"buffer": "model",
			"byteLength": 445392,
			"byteOffset": 54924,
			"target": 34962
		},
		"vec4BufferView": {
			"buffer": "model",
			"byteLength": 296928,
			"byteOffset": 500316,
			"target": 34962
		}
	},
	"meshes": {
		"mesh_m0-PolyPaper7_-47918": {
			"name": "mesh_m0-PolyPaper7_-47918",
			"primitives": [
				{
					"attributes": {
						"POSITION": "accessor_position_m0-PolyPaper7_-47918",
						"NORMAL": "accessor_normal_m0-PolyPaper7_-47918",
						"COLOR": "accessor_color_m0-PolyPaper7_-47918"
					},
					"indices": "accessor_indices_0_m0-PolyPaper7_-47918",
					"material": "material_mat7",
					"mode": 4
				}
			]
		},
		"mesh_m1-PolyGem25_-47924": {
			"name": "mesh_m1-PolyGem25_-47924",
			"primitives": [
				{
					"attributes": {
						"POSITION": "accessor_position_m1-PolyGem25_-47924",
						"NORMAL": "accessor_normal_m1-PolyGem25_-47924",
						"COLOR": "accessor_color_m1-PolyGem25_-47924"
					},
					"indices": "accessor_indices_0_m1-PolyGem25_-47924",
					"material": "material_mat25",
					"mode": 4
				}
			]
		}
	},
	"shaders": {
		"vertex_mat7": {
			"type": 35633,
			"uri": "https://vr.google.com/shaders/w/vs.glsl"
		},
		"fragment_mat7": {
			"type": 35632,
			"uri": "https://vr.google.com/shaders/w/fs.glsl"
		},
		"vertex_mat25": {
			"type": 35633,
			"uri": "https://vr.google.com/shaders/w/gemVS.glsl"
		},
		"fragment_mat25": {
			"type": 35632,
			"uri": "https://vr.google.com/shaders/w/gemFS.glsl"
		}
	},
	"programs": {
		"program_mat7": {
			"attributes": [
				"a_position",
				"a_normal",
				"a_color"				
			],
			"vertexShader": "vertex_mat7",
			"fragmentShader": "fragment_mat7"
		},
		"program_mat25": {
			"attributes": [
				"a_position",
				"a_normal",
				"a_color"				
			],
			"vertexShader": "vertex_mat25",
			"fragmentShader": "fragment_mat25"
		}
	},
	"techniques": {
		"technique_mat7": {
			"program": "program_mat7",
			"extras": {"gvrss" : "https://vr.google.com/shaders/w/gvrss/paper.json"},
			"parameters": {
				"position": {
					"type": 35665,
					"semantic": "POSITION"
				},
				"normal": {
					"type": 35665,
					"semantic": "NORMAL"
				},
				"color": {
					"type": 35666,
					"semantic": "COLOR"
				},
				"modelViewMatrix": {
					"type": 35676,
					"semantic": "MODELVIEW"
				},
				"projectionMatrix": {
					"type": 35676,
					"semantic": "PROJECTION"
				},
				"normalMatrix": {
					"type": 35675,
					"semantic": "MODELVIEWINVERSETRANSPOSE"
				},
				"color": {
					"type": 35666
				},
				"roughness": {
					"type": 5126
				},
				"metallic": {
					"type": 5126
				},
				"light0Pos": {
					"type": 35666
				},
				"light0Color": {
					"type": 35666
				},
				"light1Pos": {
					"type": 35666
				},
				"light1Color": {
					"type": 35666
				}				
			},
			"attributes": {
				"a_position": "position",
				"a_normal": "normal",
				"a_color": "color"				
			},
			"uniforms": {
				"u_modelViewMatrix": "modelViewMatrix",
				"u_projectionMatrix": "projectionMatrix",
				"u_normalMatrix": "normalMatrix",
				"u_color": "color",
				"u_roughness": "roughness",
				"u_metallic": "metallic",
				"u_light0Pos": "light0Pos",
				"u_light0Color": "light0Color",
				"u_light1Pos": "light1Pos",
				"u_light1Color": "light1Color"				
			},
			"states": {
				"enable": [
					2929,
					2884
				],
				"functions": {
					"cullFace": [1029]
				}
			}
		},
		"technique_mat25": {
			"program": "program_mat25",
			"extras": {"gvrss" : "https://vr.google.com/shaders/w/gvrss/gem.json"},
			"parameters": {
				"position": {
					"type": 35665,
					"semantic": "POSITION"
				},
				"normal": {
					"type": 35665,
					"semantic": "NORMAL"
				},
				"color": {
					"type": 35666,
					"semantic": "COLOR"
				},
				"modelViewMatrix": {
					"type": 35676,
					"semantic": "MODELVIEW"
				},
				"projectionMatrix": {
					"type": 35676,
					"semantic": "PROJECTION"
				},
				"normalMatrix": {
					"type": 35675,
					"semantic": "MODELVIEWINVERSETRANSPOSE"
				},
				"color": {
					"type": 35666
				},
				"roughness": {
					"type": 5126
				},
				"metallic": {
					"type": 5126
				},
				"gem": {
					"type": 35678
				},
				"light0Pos": {
					"type": 35666
				},
				"light0Color": {
					"type": 35666
				},
				"light1Pos": {
					"type": 35666
				},
				"light1Color": {
					"type": 35666
				}				
			},
			"attributes": {
				"a_position": "position",
				"a_normal": "normal",
				"a_color": "color"				
			},
			"uniforms": {
				"u_modelViewMatrix": "modelViewMatrix",
				"u_projectionMatrix": "projectionMatrix",
				"u_normalMatrix": "normalMatrix",
				"u_color": "color",
				"u_roughness": "roughness",
				"u_metallic": "metallic",
				"u_gem": "gem",
				"u_light0Pos": "light0Pos",
				"u_light0Color": "light0Color",
				"u_light1Pos": "light1Pos",
				"u_light1Color": "light1Color"				
			},
			"states": {
				"enable": [
					2929,
					2884
				],
				"functions": {
					"cullFace": [1029]
				}
			}
		}
	},
	"samplers": {
		"sampler_LINEAR_LINEAR_REPEAT": {
			"magFilter": 9729,
			"minFilter": 9987,
			"wrapS": 10497,
			"wrapT": 10497
		}
	},
	"textures": {
		"texture_mat25_gem": {
			"format": 6408,
			"internalFormat": 6408,
			"sampler": "sampler_LINEAR_LINEAR_REPEAT",
			"source": "image_mat25_gem",
			"target": 3553,
			"type": 5121
		}
	},
	"images": {
		"image_mat25_gem": {
			"uri": "https://vr.google.com/shaders/w/GemRefractions.png"
		}
	},
	"materials": {
		"material_mat7": {
			"technique": "technique_mat7",
			"values": {
				"color": [0.9411765, 0.3843137, 0.572549, 1],
				"roughness": 1,
				"metallic": 0,
				"light0Pos": [-0.02, 4.11, -0.54, 0],
				"light0Color": [1.28, 1.232075, 1.101177, 0],
				"light1Pos": [0.02, -4.11, 0.54, 0],
				"light1Color": [0.2941177, 0.2953672, 0.32, 0]				
			},
			"name": "material_mat7"
		},
		"material_mat25": {
			"technique": "technique_mat25",
			"values": {
				"color": [1, 1, 1, 1],
				"roughness": 0.001,
				"metallic": 0,
				"gem": "texture_mat25_gem",
				"light0Pos": [-0.02, 4.11, -0.54, 0],
				"light0Color": [1.28, 1.232075, 1.101177, 0],
				"light1Pos": [0.02, -4.11, 0.54, 0],
				"light1Color": [0.2941177, 0.2953672, 0.32, 0]				
			},
			"name": "material_mat25"
		}
	},
	"nodes": {
		"node_MeshObject-46496768-PolyPaper7": {
			"name": "node_MeshObject-46496768-PolyPaper7",
			"meshes": [
				"mesh_m0-PolyPaper7_-47918"
			],
			"matrix": [1, 0, 0, 0, 0, 1, 0, 0, 0, 0, 1, 0, 0, 0, 0, 1]
		},
		"node_MeshObject525582336-PolyGem25": {
			"name": "node_MeshObject525582336-PolyGem25",
			"meshes": [
				"mesh_m1-PolyGem25_-47924"
			],
			"matrix": [1, 0, 0, 0, 0, 1, 0, 0, 0, 0, 1, 0, 0, 0, 0, 1]
		}
	},
	"scene": "defaultScene",
	"scenes": {
		"defaultScene": {
			"nodes": [
				"node_MeshObject-46496768-PolyPaper7",
				"node_MeshObject525582336-PolyGem25"
			],
			"extras": {

			}
		}
	}
}