{
	"asset": {
		"generator": "Blocks 4.0.1_OVR_RC0",
		"version": "1.1",
		"copyright": "Unknown"
	},
	"buffers": {
		"model": {
			"byteLength": 919364,
			"type": "arraybuffer",
			"uri": "model.bin"
		}
	},
	"accessors": {
		"accessor_position_m0-PolyPaper21_-40972": {
			"bufferView": "vec3BufferView",
			"byteOffset": 0,
			"byteStride": 12,
			"componentType": 5126,
			"count": 19976,
			"max": [ 0.385362, 1.908167, 0.8118222 ],
			"min": [ -1.237414, 0.4927291, -1.054998 ],
			"type": "VEC3"
		 },
		"accessor_normal_m0-PolyPaper21_-40972": {
			"bufferView": "vec3BufferView",
			"byteOffset": 239712,
			"byteStride": 12,
			"componentType": 5126,
			"count": 19976,
			"max": [ 0.9998493, 0.9994767, 0.998504 ],
			"min": [ -0.9998493, -0.9994767, -0.9985042 ],
			"type": "VEC3"
		 },
		"accessor_color_m0-PolyPaper21_-40972": {
			"bufferView": "vec4BufferView",
			"byteOffset": 0,
			"byteStride": 16,
			"componentType": 5126,
			"count": 19976,
			"max": [ 1, 1, 1, 1 ],
			"min": [ 0.1019608, 0.1019608, 0.1019608, 1 ],
			"type": "VEC4"
		 },
		"accessor_indices_0_m0-PolyPaper21_-40972": {
			"bufferView": "ushortBufferView",
			"byteOffset": 0,
			"byteStride": 0,
			"componentType": 5123,
			"count": 29790,
			"max": [ 19975 ],
			"min": [ 0 ],
			"type": "SCALAR"
		 },
		"accessor_position_m1-PolyPaper14_-40978": {
			"bufferView": "vec3BufferView",
			"byteOffset": 479424,
			"byteStride": 12,
			"componentType": 5126,
			"count": 1416,
			"max": [ 0.1773345, 1.134776, 0.6375734 ],
			"min": [ -1.279148, 0.4838884, -0.1861532 ],
			"type": "VEC3"
		 },
		"accessor_normal_m1-PolyPaper14_-40978": {
			"bufferView": "vec3BufferView",
			"byteOffset": 496416,
			"byteStride": 12,
			"componentType": 5126,
			"count": 1416,
			"max": [ 0.9958609, 0.9923651, 0.9955831 ],
			"min": [ -0.9958609, -0.9923652, -0.9955832 ],
			"type": "VEC3"
		 },
		"accessor_color_m1-PolyPaper14_-40978": {
			"bufferView": "vec4BufferView",
			"byteOffset": 319616,
			"byteStride": 16,
			"componentType": 5126,
			"count": 1416,
			"max": [ 1, 0.3843137, 0.572549, 1 ],
			"min": [ 0.9411765, 0.3411765, 0.1333333, 1 ],
			"type": "VEC4"
		 },
		"accessor_indices_0_m1-PolyPaper14_-40978": {
			"bufferView": "ushortBufferView",
			"byteOffset": 59580,
			"byteStride": 0,
			"componentType": 5123,
			"count": 2052,
			"max": [ 1415 ],
			"min": [ 0 ],
			"type": "SCALAR"
		 }
	},
	"bufferViews": {
		"ushortBufferView": {
			"buffer": "model",
			"byteLength": 63684,
			"byteOffset": 0,
			"target": 34963
		},
		"vec3BufferView": {
			"buffer": "model",
			"byteLength": 513408,
			"byteOffset": 63684,
			"target": 34962
		},
		"vec4BufferView": {
			"buffer": "model",
			"byteLength": 342272,
			"byteOffset": 577092,
			"target": 34962
		}
	},
	"meshes": {
		"mesh_m0-PolyPaper21_-40972": {
			"name": "mesh_m0-PolyPaper21_-40972",
			"primitives": [
				{
					"attributes": {
						"POSITION": "accessor_position_m0-PolyPaper21_-40972",
						"NORMAL": "accessor_normal_m0-PolyPaper21_-40972",
						"COLOR": "accessor_color_m0-PolyPaper21_-40972"
					},
					"indices": "accessor_indices_0_m0-PolyPaper21_-40972",
					"material": "material_mat21",
					"mode": 4
				}
			]
		},
		"mesh_m1-PolyPaper14_-40978": {
			"name": "mesh_m1-PolyPaper14_-40978",
			"primitives": [
				{
					"attributes": {
						"POSITION": "accessor_position_m1-PolyPaper14_-40978",
						"NORMAL": "accessor_normal_m1-PolyPaper14_-40978",
						"COLOR": "accessor_color_m1-PolyPaper14_-40978"
					},
					"indices": "accessor_indices_0_m1-PolyPaper14_-40978",
					"material": "material_mat14",
					"mode": 4
				}
			]
		}
	},
	"shaders": {
		"vertex_mat21": {
			"type": 35633,
			"uri": "https://vr.google.com/shaders/w/vs.glsl"
		},
		"fragment_mat21": {
			"type": 35632,
			"uri": "https://vr.google.com/shaders/w/fs.glsl"
		},
		"vertex_mat14": {
			"type": 35633,
			"uri": "https://vr.google.com/shaders/w/vs.glsl"
		},
		"fragment_mat14": {
			"type": 35632,
			"uri": "https://vr.google.com/shaders/w/fs.glsl"
		}
	},
	"programs": {
		"program_mat21": {
			"attributes": [
				"a_position",
				"a_normal",
				"a_color"				
			],
			"vertexShader": "vertex_mat21",
			"fragmentShader": "fragment_mat21"
		},
		"program_mat14": {
			"attributes": [
				"a_position",
				"a_normal",
				"a_color"				
			],
			"vertexShader": "vertex_mat14",
			"fragmentShader": "fragment_mat14"
		}
	},
	"techniques": {
		"technique_mat21": {
			"program": "program_mat21",
			"extras": {"gvrss" : "https://vr.google.com/shaders/w/gvrss/paper.json"},
			"parameters": {
				"position": {
					"type": 35665,
					"semantic": "POSITION"
				},
				"normal": {
					"type": 35665,
					"semantic": "NORMAL"
				},
				"color": {
					"type": 35666,
					"semantic": "COLOR"
				},
				"modelViewMatrix": {
					"type": 35676,
					"semantic": "MODELVIEW"
				},
				"projectionMatrix": {
					"type": 35676,
					"semantic": "PROJECTION"
				},
				"normalMatrix": {
					"type": 35675,
					"semantic": "MODELVIEWINVERSETRANSPOSE"
				},
				"color": {
					"type": 35666
				},
				"roughness": {
					"type": 5126
				},
				"metallic": {
					"type": 5126
				},
				"light0Pos": {
					"type": 35666
				},
				"light0Color": {
					"type": 35666
				},
				"light1Pos": {
					"type": 35666
				},
				"light1Color": {
					"type": 35666
				}				
			},
			"attributes": {
				"a_position": "position",
				"a_normal": "normal",
				"a_color": "color"				
			},
			"uniforms": {
				"u_modelViewMatrix": "modelViewMatrix",
				"u_projectionMatrix": "projectionMatrix",
				"u_normalMatrix": "normalMatrix",
				"u_color": "color",
				"u_roughness": "roughness",
				"u_metallic": "metallic",
				"u_light0Pos": "light0Pos",
				"u_light0Color": "light0Color",
				"u_light1Pos": "light1Pos",
				"u_light1Color": "light1Color"				
			},
			"states": {
				"enable": [
					2929,
					2884
				],
				"functions": {
					"cullFace": [1029]
				}
			}
		},
		"technique_mat14": {
			"program": "program_mat14",
			"extras": {"gvrss" : "https://vr.google.com/shaders/w/gvrss/paper.json"},
			"parameters": {
				"position": {
					"type": 35665,
					"semantic": "POSITION"
				},
				"normal": {
					"type": 35665,
					"semantic": "NORMAL"
				},
				"color": {
					"type": 35666,
					"semantic": "COLOR"
				},
				"modelViewMatrix": {
					"type": 35676,
					"semantic": "MODELVIEW"
				},
				"projectionMatrix": {
					"type": 35676,
					"semantic": "PROJECTION"
				},
				"normalMatrix": {
					"type": 35675,
					"semantic": "MODELVIEWINVERSETRANSPOSE"
				},
				"color": {
					"type": 35666
				},
				"roughness": {
					"type": 5126
				},
				"metallic": {
					"type": 5126
				},
				"light0Pos": {
					"type": 35666
				},
				"light0Color": {
					"type": 35666
				},
				"light1Pos": {
					"type": 35666
				},
				"light1Color": {
					"type": 35666
				}				
			},
			"attributes": {
				"a_position": "position",
				"a_normal": "normal",
				"a_color": "color"				
			},
			"uniforms": {
				"u_modelViewMatrix": "modelViewMatrix",
				"u_projectionMatrix": "projectionMatrix",
				"u_normalMatrix": "normalMatrix",
				"u_color": "color",
				"u_roughness": "roughness",
				"u_metallic": "metallic",
				"u_light0Pos": "light0Pos",
				"u_light0Color": "light0Color",
				"u_light1Pos": "light1Pos",
				"u_light1Color": "light1Color"				
			},
			"states": {
				"enable": [
					2929,
					2884
				],
				"functions": {
					"cullFace": [1029]
				}
			}
		}
	},
	"materials": {
		"material_mat21": {
			"technique": "technique_mat21",
			"values": {
				"color": [1, 1, 1, 1],
				"roughness": 1,
				"metallic": 0,
				"light0Pos": [-0.02, 4.11, -0.54, 0],
				"light0Color": [1.28, 1.232075, 1.101177, 0],
				"light1Pos": [0.02, -4.11, 0.54, 0],
				"light1Color": [0.2941177, 0.2953672, 0.32, 0]				
			},
			"name": "material_mat21"
		},
		"material_mat14": {
			"technique": "technique_mat14",
			"values": {
				"color": [1, 0.3411765, 0.1333333, 1],
				"roughness": 1,
				"metallic": 0,
				"light0Pos": [-0.02, 4.11, -0.54, 0],
				"light0Color": [1.28, 1.232075, 1.101177, 0],
				"light1Pos": [0.02, -4.11, 0.54, 0],
				"light1Color": [0.2941177, 0.2953672, 0.32, 0]				
			},
			"name": "material_mat14"
		}
	},
	"nodes": {
		"node_MeshObject904876032-PolyPaper21": {
			"name": "node_MeshObject904876032-PolyPaper21",
			"meshes": [
				"mesh_m0-PolyPaper21_-40972"
			],
			"matrix": [1, 0, 0, 0, 0, 1, 0, 0, 0, 0, 1, 0, 0, 0, 0, 1]
		},
		"node_MeshObject-1383440384-PolyPaper14": {
			"name": "node_MeshObject-1383440384-PolyPaper14",
			"meshes": [
				"mesh_m1-PolyPaper14_-40978"
			],
			"matrix": [1, 0, 0, 0, 0, 1, 0, 0, 0, 0, 1, 0, 0, 0, 0, 1]
		}
	},
	"scene": "defaultScene",
	"scenes": {
		"defaultScene": {
			"nodes": [
				"node_MeshObject904876032-PolyPaper21",
				"node_MeshObject-1383440384-PolyPaper14"
			],
			"extras": {

			}
		}
	}
}